<?xml version="1.0" encoding="UTF-8"?>
<svg width="34px" height="34px" viewBox="0 0 34 34" version="1.1" xmlns="http://www.w3.org/2000/svg" xmlns:xlink="http://www.w3.org/1999/xlink">
    <!-- Generator: Sketch 51.2 (57519) - http://www.bohemiancoding.com/sketch -->
    <title>Ember</title>
    <desc>Created with Sketch.</desc>
    <defs>
        <linearGradient x1="2.39463155%" y1="2.61488925%" x2="92.5712401%" y2="97.5548175%" id="linearGradient-1">
            <stop stop-color="#DCB58E" offset="0%"></stop>
            <stop stop-color="#DD2D0F" offset="100%"></stop>
        </linearGradient>
        <rect id="path-2" x="0" y="0" width="34" height="34" rx="3"></rect>
        <linearGradient x1="92.5712401%" y1="97.5548175%" x2="9.33364214%" y2="-7.65600723%" id="linearGradient-4">
            <stop stop-color="#DCB58E" stop-opacity="0.112800045" offset="0%"></stop>
            <stop stop-color="#DCA781" offset="100%"></stop>
        </linearGradient>
    </defs>
    <g id="Page-1" stroke="none" stroke-width="1" fill="none" fill-rule="evenodd">
        <g id="Ember">
            <mask id="mask-3" fill="white">
                <use xlink:href="#path-2"></use>
            </mask>
            <g id="Mask">
                <use fill="#FFFFFF" xlink:href="#path-2"></use>
                <use fill="url(#linearGradient-1)" xlink:href="#path-2"></use>
            </g>
            <path d="M48.7027027,31.6165296 C45.7816188,23.2400847 42.8299826,19.1761605 39.847794,19.424757 C35.3745112,19.7976516 24.0009816,22.3104359 18.3783784,20.5297857 C12.7557752,18.7491355 9.8318789,13.4956913 2.2972973,13.0945946 C-2.72575711,12.8271968 -6.12288493,16.9331505 -11.9459459,17.2005484 L-9.84730297,35.3783784 L24.8483053,35.3783784 L48.7027027,34.0920486 L48.7027027,31.6165296 Z" id="Path-6" fill="url(#linearGradient-4)" opacity="0.5" mask="url(#mask-3)"></path>
            <path d="M48.7027027,37.1300431 C45.7816188,28.7535983 42.8299826,24.689674 39.847794,24.9382705 C35.3745112,25.3111651 24.0009816,27.8239494 18.3783784,26.0432992 C12.7557752,24.262649 9.8318789,19.0092049 2.2972973,18.6081081 C-2.72575711,18.3407103 -6.12288493,22.4466641 -11.9459459,22.7140619 L-9.84730297,40.8918919 L24.8483053,40.8918919 L48.7027027,39.6055621 L48.7027027,37.1300431 Z" id="Path-6" fill="url(#linearGradient-4)" opacity="0.600000024" mask="url(#mask-3)"></path>
            <path d="M45.9459459,41.8186839 C43.0248621,33.6516502 40.0732258,29.6893241 37.0910373,29.9317056 C32.6177544,30.2952779 21.2442248,32.7452426 15.6216216,31.0091086 C9.99901843,29.2729746 7.07512215,24.0482178 -0.459459459,23.6571485 C-5.48251386,23.3964356 -8.87964169,27.5023893 -14.7027027,27.7631022 L-12.6040597,45.4864865 L22.0915486,45.4864865 L45.9459459,44.2323149 L45.9459459,41.8186839 Z" id="Path-6" fill="url(#linearGradient-4)" mask="url(#mask-3)"></path>
            <g mask="url(#mask-3)" fill="#FFFFFF" fill-rule="nonzero" id="Shape">
                <g transform="translate(6.432432, 11.945946)">
                    <path d="M15.5557324,6.19334729 C15.5557324,6.19334729 15.4514902,5.83707654 15.8391855,5.15146249 C16.2268809,4.46584844 16.5288977,4.84076126 16.5288977,4.84076126 C16.5288977,4.84076126 16.859474,5.18805619 16.4817745,5.70865337 C16.104075,6.22994099 15.5557324,6.19334729 15.5557324,6.19334729 Z M12.5791174,6.68632658 C12.135017,7.81037459 11.0576095,7.35329855 11.0576095,7.35329855 C11.0576095,7.35329855 10.9348036,6.95145829 11.2846576,5.82741028 C11.6345116,4.70336227 12.4563115,5.14179623 12.4563115,5.14179623 C12.4563115,5.14179623 13.0232178,5.56227856 12.5791174,6.68632658 Z M11.7758812,1.98023859 C11.7758812,1.98023859 12.4470297,0.289333439 12.6076769,1.11234648 C12.7683242,1.93535952 11.1996931,4.38368523 11.1996931,4.38368523 C11.2182567,3.83547016 11.7758812,1.98023859 11.7758812,1.98023859 Z M2.18416964,6.19334729 C2.21272915,5.10589298 2.94956451,4.63086532 3.20445814,4.86837915 C3.45935177,5.10589298 3.36510539,5.61751434 2.88316365,5.93788183 C2.40122192,6.25755888 2.18416964,6.19403773 2.18416964,6.19403773 L2.18416964,6.19334729 Z M22.5106871,6.01245013 C22.4728458,5.64720357 22.1322736,5.78253121 22.1322736,5.78253121 C22.1322736,5.78253121 21.583931,6.19334729 21.1019893,6.14777777 C20.6200476,6.10220826 20.771413,5.05963302 20.771413,5.05963302 C20.771413,5.05963302 20.8756552,4.10474456 20.592202,4.02465269 C20.3087489,3.94456082 19.9588949,4.27321368 19.9588949,4.27321368 C19.9588949,4.27321368 19.5240763,4.73926552 19.3163059,5.3330501 L19.2599009,5.35100173 C19.2599009,5.35100173 19.3263017,4.30911693 19.250619,4.0716031 C19.194214,3.95284618 18.6744309,3.961822 18.5887524,4.17171794 C18.5030738,4.38161388 18.088247,5.84398101 18.0596874,6.45640766 C18.0596874,6.45640766 17.2471694,7.12337964 16.5381795,7.23316074 C15.8291897,7.34294184 15.6592606,6.9134837 15.6592606,6.9134837 C15.6592606,6.9134837 17.5870276,6.39288652 17.5206267,4.90290151 C17.4542258,3.41360694 15.9662753,3.96389334 15.7977742,4.08679294 C15.634985,4.20554985 14.7646339,4.71233808 14.5111683,6.1173981 C14.5026004,6.16503895 14.4876067,6.37424445 14.4876067,6.37424445 C14.4876067,6.37424445 13.7407755,6.85824792 13.3252346,6.9866711 C13.3252346,6.9866711 14.4876067,5.09484582 13.070341,4.23592953 C12.427752,3.86101671 11.9172508,4.64743605 11.9172508,4.64743605 C11.9172508,4.64743605 13.8357359,2.58230853 13.4101992,0.836858054 C13.2074266,0.00555964713 12.77832,-0.0835080393 12.3834848,0.0511291611 C11.784449,0.279667178 11.5581149,0.617986297 11.5581149,0.617986297 C11.5581149,0.617986297 10.7834382,1.70544061 10.6035133,3.32315835 C10.4235884,4.9408761 10.1594129,6.89622252 10.1594129,6.89622252 C10.1594129,6.89622252 9.79099522,7.24351745 9.45042306,7.26146908 C9.11056488,7.28011115 9.2612163,6.28379587 9.2612163,6.28379587 C9.2612163,6.28379587 9.52610576,4.76688341 9.50682809,4.51072751 C9.48755042,4.2545716 9.46898674,4.11786306 9.15697409,4.02672403 C8.84496144,3.935585 8.50510326,4.31947364 8.50510326,4.31947364 C8.50510326,4.31947364 7.60762065,5.63546597 7.53193795,5.83638609 L7.48481476,5.91854931 L7.43769156,5.86400398 C7.43769156,5.86400398 8.07099871,4.07298399 7.46625107,4.04536611 C6.86150344,4.01774822 6.46452625,4.6847202 6.46452625,4.6847202 C6.46452625,4.6847202 5.77481407,5.79910195 5.74625456,5.92752512 L5.69913137,5.8729798 C5.69913137,5.8729798 5.98258451,4.57562954 5.92617948,4.2559525 C5.86977445,3.93627545 5.5577618,3.99979659 5.5577618,3.99979659 C5.5577618,3.99979659 5.1607846,3.95422708 5.05654239,4.20071672 C4.95230018,4.44720637 4.57460065,6.08356619 4.52747746,6.60416336 C4.52747746,6.60416336 3.53503448,7.28977741 2.88316365,7.29875323 C2.23129283,7.30772904 2.2969797,6.89898431 2.2969797,6.89898431 C2.2969797,6.89898431 4.68812471,6.10773184 4.03553989,4.54524987 C3.74280491,4.14340961 3.40223275,4.01705777 2.92029102,4.02603358 C2.43834928,4.0350094 1.84002754,4.31947364 1.45304617,5.1604383 C1.30178724,5.50100276 1.20384756,5.86146137 1.16245315,6.22994099 C1.16245315,6.22994099 0.744056327,6.31279465 0.51700822,6.12982615 C0.289960113,5.94685764 0.173580108,6.12982615 0.173580108,6.12982615 C0.173580108,6.12982615 -0.21554322,6.60968694 0.171438145,6.75606174 C0.559133498,6.90243654 1.16388113,6.97079081 1.16388113,6.97079081 L1.16316714,6.97079081 C1.21885819,7.22694672 1.38021942,7.661238 1.85216533,8.00784248 C2.56115517,8.52843966 3.92130185,7.96020163 3.92130185,7.96020163 L4.47892629,7.65778576 C4.47892629,7.65778576 4.49820396,8.15214594 4.904463,8.2246429 C5.31072203,8.29713985 5.48065112,8.223262 6.18964096,6.56066519 C6.60518184,5.71072471 6.63374135,5.75629422 6.63374135,5.75629422 L6.68086454,5.74731841 C6.68086454,5.74731841 6.35957005,7.37401197 6.48237594,7.81244593 C6.60518184,8.25087989 7.14352861,8.20531037 7.14352861,8.20531037 C7.14352861,8.20531037 7.43626359,8.2598557 7.67259354,7.45617518 C7.90892348,6.65180422 8.36230571,5.76527004 8.36230571,5.76527004 L8.41871074,5.76527004 C8.41871074,5.76527004 8.22022215,7.4285573 8.52295296,7.95813028 C8.82568377,8.48770327 9.60964233,8.13626566 9.60964233,8.13626566 C9.60964233,8.13626566 10.1579849,7.86837215 10.2429495,7.78620894 C10.2429495,7.78620894 10.8933923,8.32199595 11.8115806,8.2246429 C13.8628674,7.83454024 14.5918489,7.30703859 14.5918489,7.30703859 C14.5918489,7.30703859 14.9445589,8.17078802 16.0355322,8.25018944 C17.2828688,8.34201892 17.9632991,7.58252702 17.9632991,7.58252702 C17.9632991,7.58252702 17.9540173,8.07619675 18.3888358,8.24949899 C18.8236544,8.42349168 19.1163893,7.44719937 19.1163893,7.44719937 L19.8439429,5.50773324 L19.9103437,5.50773324 C19.9103437,5.50773324 19.9481851,6.76918024 20.6664568,6.97010037 C21.3847284,7.1710205 22.3200524,6.49921539 22.3200524,6.49921539 C22.3200524,6.49921539 22.5471005,6.37769669 22.5092592,6.01245013 L22.5106871,6.01245013 Z"></path>
                </g>
            </g>
        </g>
    </g>
</svg>